<svg viewBox="0 0 128 128" xmlns="http://www.w3.org/2000/svg">
<defs>
<linearGradient id="sweepSmall" x1="0%" y1="0%" x2="100%" y2="0%">
<stop offset="0%" style="stop-color:#1D4ED8;stop-opacity:0"/>
<stop offset="50%" style="stop-color:#3B82F6;stop-opacity:0.65"/>
<stop offset="80%" style="stop-color:#38BDF8;stop-opacity:0.9"/>
<stop offset="100%" style="stop-color:#60A5FA;stop-opacity:1"/>
</linearGradient>
<linearGradient id="sweepGlowSmall" x1="0%" y1="0%" x2="100%" y2="0%">
<stop offset="0%" style="stop-color:#38BDF8;stop-opacity:0"/>
<stop offset="60%" style="stop-color:#38BDF8;stop-opacity:0.45"/>
<stop offset="100%" style="stop-color:#60A5FA;stop-opacity:0.65"/>
</linearGradient>
<radialGradient id="plateSmall">
<stop offset="0%" style="stop-color:#F0F9FF"/>
<stop offset="70%" style="stop-color:#E0F2FE"/>
<stop offset="100%" style="stop-color:#BAE6FD"/>
</radialGradient>
<radialGradient id="innerSmall">
<stop offset="0%" style="stop-color:#F8FAFC"/>
<stop offset="100%" style="stop-color:#E0F2FE"/>
</radialGradient>
<radialGradient id="coreSmall">
<stop offset="0%" style="stop-color:#FFFFFF"/>
<stop offset="40%" style="stop-color:#60A5FA"/>
<stop offset="100%" style="stop-color:#1D4ED8"/>
</radialGradient>
<radialGradient id="pulseSmall">
<stop offset="0%" style="stop-color:#38BDF8;stop-opacity:0.85"/>
<stop offset="100%" style="stop-color:#38BDF8;stop-opacity:0"/>
</radialGradient>
<filter id="glowSmall">
<feGaussianBlur stdDeviation="1.5"/>
</filter>
</defs>
<rect width="128" height="128" fill="#FAFAFA" rx="20"/>
<g transform="translate(64,64)">
<circle cx="0" cy="0" r="56" fill="url(#plateSmall)"/>
<circle cx="0" cy="0" r="54" fill="url(#innerSmall)"/>
<circle cx="0" cy="0" r="50" fill="none" stroke="#1D4ED8" stroke-width="1.5" opacity="0.4"/>
<circle cx="0" cy="0" r="37" fill="none" stroke="#1D4ED8" stroke-width="1.5" opacity="0.4"/>
<circle cx="0" cy="0" r="24" fill="none" stroke="#1D4ED8" stroke-width="1.5" opacity="0.4"/>
<line x1="-50" y1="0" x2="50" y2="0" stroke="#1D4ED8" stroke-width="1.5" opacity="0.4"/>
<line x1="0" y1="-50" x2="0" y2="50" stroke="#1D4ED8" stroke-width="1.5" opacity="0.4"/>
<path d="M 0,0 L 0,-50 A 50,50 0 0,1 50,0 Z" fill="url(#sweepGlowSmall)" opacity="0.6" filter="url(#glowSmall)"/>
<path d="M 0,0 L 0,-50 A 50,50 0 0,1 50,0 Z" fill="url(#sweepSmall)" opacity="0.9"/>
<circle cx="36" cy="-15" r="8" fill="url(#pulseSmall)" opacity="0.6" filter="url(#glowSmall)"/>
<circle cx="36" cy="-15" r="5" fill="#1D4ED8"/>
<circle cx="36" cy="-15" r="2" fill="#FFFFFF"/>
<circle cx="-26" cy="19" r="7" fill="url(#pulseSmall)" opacity="0.5" filter="url(#glowSmall)"/>
<circle cx="-26" cy="19" r="4.5" fill="#2563EB"/>
<circle cx="17" cy="34" r="7.5" fill="url(#pulseSmall)" opacity="0.55" filter="url(#glowSmall)"/>
<circle cx="17" cy="34" r="4.8" fill="#3B82F6"/>
<circle cx="0" cy="0" r="15" fill="url(#coreSmall)"/>
<ellipse cx="-3" cy="-4" rx="6" ry="7" fill="#FFFFFF" opacity="0.85"/>
</g>
</svg>
