<svg viewBox="0 0 400 400" xmlns="http://www.w3.org/2000/svg">
<defs>
<linearGradient id="sweepIconDark" x1="0%" y1="0%" x2="100%" y2="0%">
<stop offset="0%" style="stop-color:#3B82F6;stop-opacity:0"/>
<stop offset="50%" style="stop-color:#60A5FA;stop-opacity:0.7"/>
<stop offset="80%" style="stop-color:#38BDF8;stop-opacity:0.95"/>
<stop offset="100%" style="stop-color:#93C5FD;stop-opacity:1"/>
</linearGradient>
<linearGradient id="sweepGlowIconDark" x1="0%" y1="0%" x2="100%" y2="0%">
<stop offset="0%" style="stop-color:#60A5FA;stop-opacity:0"/>
<stop offset="60%" style="stop-color:#38BDF8;stop-opacity:0.5"/>
<stop offset="100%" style="stop-color:#93C5FD;stop-opacity:0.7"/>
</linearGradient>
<radialGradient id="plateIconDark">
<stop offset="0%" style="stop-color:#1e293b"/>
<stop offset="70%" style="stop-color:#0f172a"/>
<stop offset="100%" style="stop-color:#020617"/>
</radialGradient>
<radialGradient id="innerIconDark">
<stop offset="0%" style="stop-color:#1e293b"/>
<stop offset="100%" style="stop-color:#0f172a"/>
</radialGradient>
<radialGradient id="coreIconDark">
<stop offset="0%" style="stop-color:#FFFFFF"/>
<stop offset="40%" style="stop-color:#60A5FA"/>
<stop offset="100%" style="stop-color:#3B82F6"/>
</radialGradient>
<radialGradient id="pulseIconDark">
<stop offset="0%" style="stop-color:#38BDF8;stop-opacity:0.9"/>
<stop offset="60%" style="stop-color:#38BDF8;stop-opacity:0.4"/>
<stop offset="100%" style="stop-color:#38BDF8;stop-opacity:0"/>
</radialGradient>
<radialGradient id="coreGlowIconDark">
<stop offset="0%" style="stop-color:#60A5FA;stop-opacity:0.6"/>
<stop offset="100%" style="stop-color:#60A5FA;stop-opacity:0"/>
</radialGradient>
<filter id="shadowIconDark">
<feGaussianBlur in="SourceAlpha" stdDeviation="3"/>
<feOffset dx="1.5" dy="3"/>
<feComponentTransfer>
<feFuncA type="linear" slope="0.5"/>
</feComponentTransfer>
<feMerge>
<feMergeNode/>
<feMergeNode in="SourceGraphic"/>
</feMerge>
</filter>
<filter id="strongGlowIconDark">
<feGaussianBlur stdDeviation="6"/>
</filter>
<filter id="mediumGlowIconDark">
<feGaussianBlur stdDeviation="3.5"/>
</filter>
</defs>
<rect width="400" height="400" fill="#0f172a"/>
<g transform="translate(200,200)">
<ellipse cx="0" cy="5" rx="90" ry="86" fill="#000000" opacity="0.35"/>
<circle cx="0" cy="0" r="92" fill="url(#plateIconDark)"/>
<ellipse cx="-23" cy="-28" rx="40" ry="34" fill="#38BDF8" opacity="0.08"/>
<circle cx="0" cy="0" r="88" fill="url(#innerIconDark)"/>
<circle cx="0" cy="0" r="82" fill="none" stroke="#60A5FA" stroke-width="2.2" opacity="0.45"/>
<circle cx="0" cy="0" r="61" fill="none" stroke="#60A5FA" stroke-width="2.2" opacity="0.45"/>
<circle cx="0" cy="0" r="40" fill="none" stroke="#60A5FA" stroke-width="2.2" opacity="0.45"/>
<line x1="-82" y1="0" x2="82" y2="0" stroke="#60A5FA" stroke-width="2.2" opacity="0.45"/>
<line x1="0" y1="-82" x2="0" y2="82" stroke="#60A5FA" stroke-width="2.2" opacity="0.45"/>
<line x1="-58" y1="-58" x2="58" y2="58" stroke="#60A5FA" stroke-width="2.2" opacity="0.45"/>
<line x1="-58" y1="58" x2="58" y2="-58" stroke="#60A5FA" stroke-width="2.2" opacity="0.45"/>
<path d="M 0,0 L 0,-82 A 82,82 0 0,1 82,0 Z" fill="url(#sweepGlowIconDark)" opacity="0.6" filter="url(#strongGlowIconDark)"/>
<path d="M 0,0 L 0,-82 A 82,82 0 0,1 82,0 Z" fill="url(#sweepIconDark)" opacity="0.95" filter="url(#mediumGlowIconDark)"/>
<g filter="url(#shadowIconDark)">
<circle cx="59" cy="-25" r="21" fill="url(#pulseIconDark)" opacity="0.7" filter="url(#strongGlowIconDark)"/>
<circle cx="59" cy="-25" r="9.6" fill="#38BDF8"/>
<circle cx="59" cy="-25" r="4.4" fill="#FFFFFF"/>
<ellipse cx="56" cy="-28" rx="3.7" ry="4.5" fill="#FFFFFF" opacity="0.8"/>
</g>
<g filter="url(#shadowIconDark)">
<circle cx="-42" cy="31" r="18" fill="url(#pulseIconDark)" opacity="0.65" filter="url(#strongGlowIconDark)"/>
<circle cx="-42" cy="31" r="8.2" fill="#60A5FA"/>
<circle cx="-42" cy="31" r="3.7" fill="#FFFFFF"/>
<ellipse cx="-45" cy="28" rx="3" ry="3.7" fill="#FFFFFF" opacity="0.8"/>
</g>
<g filter="url(#shadowIconDark)">
<circle cx="28" cy="56" r="20" fill="url(#pulseIconDark)" opacity="0.68" filter="url(#strongGlowIconDark)"/>
<circle cx="28" cy="56" r="8.9" fill="#3B82F6"/>
<circle cx="28" cy="56" r="4.1" fill="#FFFFFF"/>
<ellipse cx="25" cy="54" rx="3.4" ry="4.2" fill="#FFFFFF" opacity="0.8"/>
</g>
<g filter="url(#shadowIconDark)">
<circle cx="-17" cy="-64" r="17" fill="url(#pulseIconDark)" opacity="0.6" filter="url(#strongGlowIconDark)"/>
<circle cx="-17" cy="-64" r="7.5" fill="#93C5FD"/>
<circle cx="-17" cy="-64" r="3.4" fill="#FFFFFF"/>
<ellipse cx="-20" cy="-67" rx="2.8" ry="3.4" fill="#FFFFFF" opacity="0.75"/>
</g>
<circle cx="0" cy="0" r="42" fill="url(#coreGlowIconDark)" opacity="0.5" filter="url(#strongGlowIconDark)"/>
<circle cx="0" cy="0" r="26" fill="url(#coreIconDark)" filter="url(#shadowIconDark)"/>
<ellipse cx="-6.4" cy="-7.8" rx="10.6" ry="12" fill="#FFFFFF" opacity="0.9"/>
<ellipse cx="-9.2" cy="-10.6" rx="5.4" ry="6.8" fill="#FFFFFF" opacity="0.7"/>
</g>
</svg>
