<svg viewBox="0 0 400 400" xmlns="http://www.w3.org/2000/svg">
<defs>
<linearGradient id="sweepIcon" x1="0%" y1="0%" x2="100%" y2="0%">
<stop offset="0%" style="stop-color:#1D4ED8;stop-opacity:0"/>
<stop offset="50%" style="stop-color:#3B82F6;stop-opacity:0.65"/>
<stop offset="80%" style="stop-color:#38BDF8;stop-opacity:0.9"/>
<stop offset="100%" style="stop-color:#60A5FA;stop-opacity:1"/>
</linearGradient>
<linearGradient id="sweepGlowIcon" x1="0%" y1="0%" x2="100%" y2="0%">
<stop offset="0%" style="stop-color:#38BDF8;stop-opacity:0"/>
<stop offset="60%" style="stop-color:#38BDF8;stop-opacity:0.45"/>
<stop offset="100%" style="stop-color:#60A5FA;stop-opacity:0.65"/>
</linearGradient>
<radialGradient id="plateIcon">
<stop offset="0%" style="stop-color:#F0F9FF"/>
<stop offset="70%" style="stop-color:#E0F2FE"/>
<stop offset="100%" style="stop-color:#BAE6FD"/>
</radialGradient>
<radialGradient id="innerIcon">
<stop offset="0%" style="stop-color:#F8FAFC"/>
<stop offset="100%" style="stop-color:#E0F2FE"/>
</radialGradient>
<radialGradient id="coreIcon">
<stop offset="0%" style="stop-color:#FFFFFF"/>
<stop offset="40%" style="stop-color:#60A5FA"/>
<stop offset="100%" style="stop-color:#1D4ED8"/>
</radialGradient>
<radialGradient id="pulseIcon">
<stop offset="0%" style="stop-color:#38BDF8;stop-opacity:0.85"/>
<stop offset="60%" style="stop-color:#38BDF8;stop-opacity:0.35"/>
<stop offset="100%" style="stop-color:#38BDF8;stop-opacity:0"/>
</radialGradient>
<radialGradient id="coreGlowIcon">
<stop offset="0%" style="stop-color:#60A5FA;stop-opacity:0.5"/>
<stop offset="100%" style="stop-color:#60A5FA;stop-opacity:0"/>
</radialGradient>
<filter id="shadowIcon">
<feGaussianBlur in="SourceAlpha" stdDeviation="3"/>
<feOffset dx="1.5" dy="3"/>
<feComponentTransfer>
<feFuncA type="linear" slope="0.32"/>
</feComponentTransfer>
<feMerge>
<feMergeNode/>
<feMergeNode in="SourceGraphic"/>
</feMerge>
</filter>
<filter id="strongGlowIcon">
<feGaussianBlur stdDeviation="5"/>
</filter>
<filter id="mediumGlowIcon">
<feGaussianBlur stdDeviation="3"/>
</filter>
</defs>
<rect width="400" height="400" fill="#FAFAFA"/>
<g transform="translate(200,200)">
<ellipse cx="0" cy="5" rx="90" ry="86" fill="#94A3B8" opacity="0.21"/>
<circle cx="0" cy="0" r="92" fill="url(#plateIcon)"/>
<ellipse cx="-23" cy="-28" rx="40" ry="34" fill="#FFFFFF" opacity="0.28"/>
<circle cx="0" cy="0" r="88" fill="url(#innerIcon)"/>
<circle cx="0" cy="0" r="82" fill="none" stroke="#1D4ED8" stroke-width="2.2" opacity="0.37"/>
<circle cx="0" cy="0" r="61" fill="none" stroke="#1D4ED8" stroke-width="2.2" opacity="0.37"/>
<circle cx="0" cy="0" r="40" fill="none" stroke="#1D4ED8" stroke-width="2.2" opacity="0.37"/>
<line x1="-82" y1="0" x2="82" y2="0" stroke="#1D4ED8" stroke-width="2.2" opacity="0.37"/>
<line x1="0" y1="-82" x2="0" y2="82" stroke="#1D4ED8" stroke-width="2.2" opacity="0.37"/>
<line x1="-58" y1="-58" x2="58" y2="58" stroke="#1D4ED8" stroke-width="2.2" opacity="0.37"/>
<line x1="-58" y1="58" x2="58" y2="-58" stroke="#1D4ED8" stroke-width="2.2" opacity="0.37"/>
<path d="M 0,0 L 0,-82 A 82,82 0 0,1 82,0 Z" fill="url(#sweepGlowIcon)" opacity="0.55" filter="url(#strongGlowIcon)"/>
<path d="M 0,0 L 0,-82 A 82,82 0 0,1 82,0 Z" fill="url(#sweepIcon)" opacity="0.92" filter="url(#mediumGlowIcon)"/>
<g filter="url(#shadowIcon)">
<circle cx="59" cy="-25" r="18" fill="url(#pulseIcon)" opacity="0.62" filter="url(#strongGlowIcon)"/>
<circle cx="59" cy="-25" r="9.6" fill="#1D4ED8"/>
<circle cx="59" cy="-25" r="4.4" fill="#FFFFFF"/>
<ellipse cx="56" cy="-28" rx="3.7" ry="4.5" fill="#FFFFFF" opacity="0.73"/>
</g>
<g filter="url(#shadowIcon)">
<circle cx="-42" cy="31" r="16" fill="url(#pulseIcon)" opacity="0.56" filter="url(#strongGlowIcon)"/>
<circle cx="-42" cy="31" r="8.2" fill="#2563EB"/>
<circle cx="-42" cy="31" r="3.7" fill="#FFFFFF"/>
<ellipse cx="-45" cy="28" rx="3" ry="3.7" fill="#FFFFFF" opacity="0.73"/>
</g>
<g filter="url(#shadowIcon)">
<circle cx="28" cy="56" r="17.5" fill="url(#pulseIcon)" opacity="0.59" filter="url(#strongGlowIcon)"/>
<circle cx="28" cy="56" r="8.9" fill="#3B82F6"/>
<circle cx="28" cy="56" r="4.1" fill="#FFFFFF"/>
<ellipse cx="25" cy="54" rx="3.4" ry="4.2" fill="#FFFFFF" opacity="0.73"/>
</g>
<g filter="url(#shadowIcon)">
<circle cx="-17" cy="-64" r="15" fill="url(#pulseIcon)" opacity="0.51" filter="url(#strongGlowIcon)"/>
<circle cx="-17" cy="-64" r="7.5" fill="#60A5FA"/>
<circle cx="-17" cy="-64" r="3.4" fill="#FFFFFF"/>
<ellipse cx="-20" cy="-67" rx="2.8" ry="3.4" fill="#FFFFFF" opacity="0.7"/>
</g>
<circle cx="0" cy="0" r="37" fill="url(#coreGlowIcon)" opacity="0.43" filter="url(#strongGlowIcon)"/>
<circle cx="0" cy="0" r="26" fill="url(#coreIcon)" filter="url(#shadowIcon)"/>
<ellipse cx="-6.4" cy="-7.8" rx="10.6" ry="12" fill="#FFFFFF" opacity="0.87"/>
<ellipse cx="-9.2" cy="-10.6" rx="5.4" ry="6.8" fill="#FFFFFF" opacity="0.63"/>
</g>
</svg>
